<svg xmlns="http://www.w3.org/2000/svg" version="1.1" xmlns:xlink="http://www.w3.org/1999/xlink" xmlns:svgjs="http://svgjs.dev/svgjs" width="1500" height="1500" viewBox="0 0 1500 1500"><rect width="1500" height="1500" fill="#ffffff"></rect><g transform="matrix(0.6666666666666666,0,0,0.6666666666666666,250.00007343750008,187.66666666666674)"><svg viewBox="0 0 320 360" data-background-color="#2979ff" preserveAspectRatio="xMidYMid meet" height="1687" width="1500" xmlns="http://www.w3.org/2000/svg" xmlns:xlink="http://www.w3.org/1999/xlink"><g id="tight-bounds" transform="matrix(1,0,0,1,0.000023499999997511622,0)"><svg viewBox="0 0 320 360" height="360" width="320"><g><svg></svg></g><g><svg viewBox="0 0 320 360" height="360" width="320"><g><path transform="translate(-74.99272,-51.79039) scale(4.65793,4.65793)" d="M20.6 59.9l0.8 1-0.4-1.3c-0.1-0.6-0.8 0.1-0.4 0.3M21.5 59.3c0.3 0.5 0.6 1 0.6 1.5 0 0.7 0.6 1 1.1 1.2-0.7-0.8-1.1-3-1.7-2.7M59.9 16.9c1.7 0 3.3-0.2 5.1 0.2 4.4 1.1 8.1 3.3 10.6 6.4l7 11.2c0.3 2.8 0.9 5.9 0.8 9.3 0.7 0 0.6-1 1.4-1.2-0.8 2-1.2 4.5-1.4 7.4-0.5-1.6 0-4 0.1-5.3-0.7 1.1-1.1 0.3-1.1-0.2 0.1-0.8-0.3-0.7-0.6-1-1.1-1-1.8-2.1-2.6-3.8 0.5-1.3 0.6-3.2-1-4.2-0.5-0.3-1.1-0.8-1.4-1.6-0.4-1.1-1.1-2.4-0.9-4.1 0.1-0.5-1.5 1.1-2.4 0.4-3.9-2.7-7.8-5.8-12.5-8.4-2.5 0-4.3-0.9-5.2-2-0.8-1-0.2-2.3 1-2.4 0.7 0 1.5-0.2 2.1 0.2 0.1-0.4 0.5-0.9 1-0.9M50 14.6l0.2 0.1c1 0.2 1.5 1.6 2.6 1.1 0 0.7 0.1 1.4-0.1 1.9-0.3 0.8-1.2 0.8-1.9 0.8-6.7-0.4-10.6 2.4-14.7 4.8-1.1 0.7-2.3 1.2-3.2 2.1-4.3 4-9 7.7-10.1 15.1l-0.9 8.2c-0.1 0.9-1.1 1.8-0.9 2.9l0.7 4.9c-0.7-0.7-1.1 0.2-0.9 0.6 0.1 0.3 0.5 1.3 1.1 0.4 0.8 1.5 1.6 4.4 2.7 5.7 3.4 4 7.8 7.6 11.4 11.2 0.9-0.2 1.6-0.2 1.8-0.8 0.3 0.6-0.3 1.2-0.8 1.3 1.6 1 3.4 1.9 5.8 2.1 3.1 0.2 6 0.7 8.7 1.4 1.4-0.4 2.8-0.6 4.3-0.7 0.5 0 0.8-0.8 1.4-1l0.1-1c0.6 0.9 0.5-0.3 0.1-0.9 0.7 0.6 0.9 1.1 1.2 1.5 0-0.3 0.8-1.4 0.8-0.1l0.2-1.3c0.3-0.2 0.4 1.1 0.7 0.2 0.3-0.9 0.9-0.2 1.5-0.5-0.2 0.4-0.1 1.2 0.6 0.7l0.8-0.7c0.5 1.2 1.3 0.7 1.7 0.5 4.4-2.8 8.8-6.1 13-9.4l-0.1 1.3 0.5-1.6c0.5 0.5 0.9 0.1 1.1-0.2 0.6-1 1.4-2 2.7-2.9-1.6 4.3-3.5 7.7-5.9 10.5l-1 1.2c0 0.7-0.2 1.6-1 1.7-0.4 0.1-1.2-0.2-1.8 0.4-0.3 0.4 0.7 1.2-0.1 0.6-0.7-0.5-1.4 0-2.2 0.2-0.6 0.2 0.4 0.8 0.6 1.2 0.2 0.4 0.4 0.8 0.3 1.3l-1.1-1.2c-1.3 0.7-2.1 2-3.2 3-0.5 0.4-0.3 1.1-0.3 1.7-0.7 0-1.5-0.2-1.9 0.2-0.3 0.4-0.2 1-0.2 1.6-1-0.1-1.1-1.6-2-1.3-0.9 0.2-1.9 0.3-2.7 0.8 0.6 1.2-1 0.5-0.8 0.7-1.5-0.9-2.8-1.6-4.4-1-3.4-1.1-7.6-0.6-10.7-0.2 0-0.5 0.1-1-0.1-1.1-0.2 0.5-0.8 0.3-0.7 0.3-1.9-1.3-3.8-2.1-5.8-3.2-1.8 0.2-3.5-0.7-4-1.2-1.4-1.3-3-0.6-4.3-0.9-2.8-0.7-3.8-3.6-4.1-5.6-0.2-1-1-1.4-1.3-1.3-1.3-4.2-3.3-8-4.9-11.9-0.4-1-0.3-2-0.3-3.1 0.5 0.2 1 0.1 0.9-0.6-0.5-3.3-1.7-5.8-3-8.2 0.7-3.4 0.8-7.4 2.4-10.4 1.4-2.7 4-4.1 5.8-6.4 0.6-0.8 0.6-1.9 1.2-2.6 2-2 4-4.1 6.2-5.9 1-0.8 2.2 0 3.7-0.3 0.5-1.8 2.5-3.4 4.4-2.9 0.8 0.2 2.4-1.9 2.9-2.1 0.8-0.3 0.4 0.8 0.4 1.5 1.9-1.5 4.5-2.3 6.9-3.2" fill="#000000" fill-rule="nonzero" stroke="none" stroke-width="1" stroke-linecap="butt" stroke-linejoin="miter" stroke-miterlimit="10" stroke-dasharray="" stroke-dashoffset="0" font-family="none" font-weight="none" font-size="none" text-anchor="none" style="mix-blend-mode: normal" data-fill-palette-color="tertiary"></path></g><g transform="matrix(1,0,0,1,72.84861295779116,90)"><svg viewBox="0 0 174.30277408441768 180" height="180" width="174.30277408441768"><g><svg viewBox="0 0 174.30277408441768 180" height="180" width="174.30277408441768"><g><svg viewBox="0 0 192 198.2756739331184" height="180" width="174.30277408441768"><g transform="matrix(1,0,0,1,0,111.5399183916354)"><svg viewBox="0 0 192 86.73575554148302" height="86.73575554148302" width="192"><g id="textblocktransform"><svg viewBox="0 0 192 86.73575554148302" height="86.73575554148302" width="192" id="textblock"><g><svg viewBox="0 0 192 86.73575554148302" height="86.73575554148302" width="192"><g transform="matrix(1,0,0,1,0,0)"><svg width="192" viewBox="1.7249999999999999 -38.25 116.265 52.529653593836" height="86.73575554148302" data-palette-color="#ffffff"><path d="M10.5-26.35L10.5-26.35Q9.65-23.4 8.58-20.3 7.5-17.2 6.35-14.45L6.35-14.45Q6.3-14.3 6.08-13.9 5.85-13.5 5.7-13.55L5.7-13.55Q5.6-13.55 5.58-14.03 5.55-14.5 5.6-14.75L5.6-14.75Q5.7-15.4 5.9-16.35 6.1-17.3 6.33-18.3 6.55-19.3 6.78-20.25 7-21.2 7.25-21.9L7.25-21.9Q7.35-22.2 7.6-23.2 7.85-24.2 8.15-25.6 8.45-27 8.78-28.6 9.1-30.2 9.33-31.7 9.55-33.2 9.65-34.45 9.75-35.7 9.6-36.35L9.6-36.35Q9.45-36.85 9.6-36.85L9.6-36.85Q9.7-36.85 9.78-36.73 9.85-36.6 9.95-36.5L9.95-36.5Q10.45-35.6 10.73-34.3 11-33 11.05-31.6 11.1-30.2 10.95-28.8 10.8-27.4 10.5-26.35ZM8.5-37.9L8.5-37.9Q9.15-35.35 8.83-32.55 8.5-29.75 7.7-26.85 6.9-23.95 5.9-20.98 4.9-18 4.2-15L4.2-15Q3.75-13.1 3.48-11.08 3.2-9.05 3.2-7.08 3.2-5.1 3.53-3.28 3.85-1.45 4.65 0L4.65 0Q4.75 0.2 4.73 0.3 4.7 0.4 4.4 0L4.4 0Q3.1-1.5 2.48-3.4 1.85-5.3 1.75-7.4 1.65-9.5 1.95-11.75 2.25-14 2.8-16.15L2.8-16.15Q3.55-19.15 4.48-22.05 5.4-24.95 6.23-27.7 7.05-30.45 7.6-33.02 8.15-35.6 8.15-38L8.15-38Q8.15-38.25 8.2-38.25L8.2-38.25Q8.4-38.25 8.5-37.9ZM17.6 0L17.6 0Q15.75-0.85 14.65-2.65 13.55-4.45 13.3-6.8L13.3-6.8Q13.05-9.1 13.3-10.63 13.55-12.15 13.9-13.65L13.9-13.65Q13.95-13.85 14.1-14.33 14.25-14.8 14.33-15.3 14.4-15.8 14.33-16.18 14.25-16.55 13.9-16.65L13.9-16.65Q13.2-16.8 12.3-16.03 11.4-15.25 10.58-14.1 9.75-12.95 9.08-11.73 8.4-10.5 8.2-9.8L8.2-9.8Q7.75-8.35 7.25-7.05 6.75-5.75 6.35-4.45L6.35-4.45Q6.2-3.9 6.1-3.95L6.1-3.95Q6-3.95 5.98-4.15 5.95-4.35 5.95-4.6L5.95-4.6Q5.95-6.6 6.25-8.63 6.55-10.65 7.08-12.65 7.6-14.65 8.25-16.65 8.9-18.65 9.5-20.7L9.5-20.7Q10.3-23.25 11.03-25.9 11.75-28.55 12-31.6L12-31.6Q12-31.85 12-31.88 12-31.9 12.05-31.9L12.05-31.9Q12.2-31.9 12.3-31.5L12.3-31.5Q12.55-30.85 12.53-29.68 12.5-28.5 12.33-27.1 12.15-25.7 11.83-24.25 11.5-22.8 11.15-21.65L11.15-21.65Q12.1-22.65 13.4-23.2 14.7-23.75 16.5-23.5L16.5-23.5Q18.55-23.2 19.65-22.03 20.75-20.85 21.15-19.2 21.55-17.55 21.38-15.68 21.2-13.8 20.75-12.05L20.75-12.05Q20.35-10.7 20-9.68 19.65-8.65 19.3-7.8 18.95-6.95 18.7-6.2 18.45-5.45 18.3-4.6L18.3-4.6Q18.2-4.05 18.1-4.05L18.1-4.05Q18-4.05 17.93-4.25 17.85-4.45 17.8-4.65L17.8-4.65Q17.5-5.75 17.78-7.35 18.05-8.95 18.5-10.73 18.95-12.5 19.33-14.33 19.7-16.15 19.63-17.7 19.55-19.25 18.8-20.43 18.05-21.6 16.25-22.05L16.25-22.05Q15.5-22.25 14.63-22.18 13.75-22.1 12.98-21.78 12.2-21.45 11.6-20.85 11-20.25 10.8-19.45L10.8-19.45Q11.75-20.45 13.25-21.1 14.75-21.75 16.15-21.3L16.15-21.3Q17.45-20.9 18-19.85 18.55-18.8 18.65-18L18.65-18Q18.85-16.25 18.43-14.83 18-13.4 17.45-12.1L17.45-12.1Q17.35-11.95 17.15-11.63 16.95-11.3 16.85-11.35L16.85-11.35Q16.75-11.35 16.75-11.75 16.75-12.15 16.8-12.35L16.8-12.35Q16.95-12.85 17.05-13.93 17.15-15 17.13-16.15 17.1-17.3 16.82-18.3 16.55-19.3 15.95-19.65L15.95-19.65Q15.25-20.05 14.25-19.88 13.25-19.7 12.1-18.65L12.1-18.65Q11.1-17.75 10.4-16.57 9.7-15.4 9.2-13.5L9.2-13.5Q9.5-14.05 10.15-15.05 10.8-16.05 11.63-16.95 12.45-17.85 13.38-18.38 14.3-18.9 15.15-18.5L15.15-18.5Q15.7-18.2 15.88-17.48 16.05-16.75 15.98-15.85 15.9-14.95 15.7-14.1 15.5-13.25 15.35-12.75L15.35-12.75Q14.8-11.25 14.6-9.47 14.4-7.7 14.63-6 14.85-4.3 15.6-2.8 16.35-1.3 17.8-0.25L17.8-0.25Q18.25 0 17.98 0 17.7 0 17.6 0ZM18.9-0.4L18.9-0.4Q18.2-0.8 17.57-1.25 16.95-1.7 16.35-3L16.35-3Q16.1-3.5 15.98-4.35 15.85-5.2 15.83-5.98 15.8-6.75 15.9-7.28 16-7.8 16.15-7.75L16.15-7.75Q16.25-7.75 16.35-7.53 16.45-7.3 16.5-7 16.55-6.7 16.6-6.43 16.65-6.15 16.65-6.05L16.65-6.05Q16.85-4.95 17-4.42 17.15-3.9 17.4-3.3L17.4-3.3Q17.8-2.5 18.2-1.85 18.6-1.2 19.2-0.65L19.2-0.65Q19.45-0.45 19.33-0.35 19.2-0.25 18.9-0.4ZM6.25 0L6.25 0Q6.3 0 6.18 0.05 6.05 0.1 5.7 0L5.7 0Q5.3-0.2 4.88-0.75 4.45-1.3 4.2-2.9L4.2-2.9Q4.1-3.55 4.1-4.48 4.1-5.4 4.17-6.23 4.25-7.05 4.4-7.65 4.55-8.25 4.75-8.2L4.75-8.2Q4.8-8.2 4.85-7.9 4.9-7.6 4.95-7.23 5-6.85 5-6.48 5-6.1 5-5.95L5-5.95Q5.05-4.85 5.13-4.33 5.2-3.8 5.35-2.9L5.35-2.9Q5.5-1.95 5.7-1.18 5.9-0.4 6.25 0ZM38.5-13.85L38.5-13.85Q38.65-15.2 38.55-16.7 38.45-18.2 37.92-19.48 37.4-20.75 36.32-21.6 35.25-22.45 33.5-22.45L33.5-22.45Q31.15-22.45 29.4-21.18 27.65-19.9 26.4-18.03 25.15-16.15 24.45-14.03 23.75-11.9 23.55-10.15L23.55-10.15Q23.25-7.75 23.47-6 23.7-4.25 24.3-3.13 24.9-2 25.82-1.45 26.75-0.9 27.85-0.9L27.85-0.9Q29.4-0.85 31.12-1.78 32.85-2.7 34.35-4.38 35.85-6.05 36.97-8.47 38.1-10.9 38.5-13.85ZM22.4-10.4L22.4-10.4Q22.6-12.4 23.4-14.8 24.2-17.2 25.62-19.25 27.05-21.3 29.05-22.68 31.05-24.05 33.7-24.05L33.7-24.05Q35.7-24.05 37-23.1 38.3-22.15 39-20.68 39.7-19.2 39.9-17.48 40.1-15.75 39.9-14.2L39.9-14.2Q39.45-10.6 38.15-7.95 36.85-5.3 35.1-3.53 33.35-1.75 31.4-0.88 29.45 0 27.65 0L27.65 0Q26.3 0 25.22-0.6 24.15-1.2 23.42-2.48 22.7-3.75 22.42-5.73 22.15-7.7 22.4-10.4ZM28-3.35L28-3.35Q27.75-3.35 27.5-3.53 27.25-3.7 27.1-3.95 26.95-4.2 26.9-4.45 26.85-4.7 27.1-4.8L27.1-4.8Q27.25-4.85 27.5-4.45 27.75-4.05 28.05-4.05L28.05-4.05Q28.55-4.05 29.22-4.7 29.9-5.35 30.52-6.23 31.15-7.1 31.62-7.95 32.1-8.8 32.3-9.2L32.3-9.2Q32.5-9.6 32.7-10.23 32.9-10.85 33.07-11.5 33.25-12.15 33.37-12.78 33.5-13.4 33.55-13.85L33.55-13.85Q33.8-16.1 33.45-17.32 33.1-18.55 32.3-18.55L32.3-18.55Q31.7-18.55 31.05-18.18 30.4-17.8 29.82-17.2 29.25-16.6 28.8-15.88 28.35-15.15 28.15-14.4L28.15-14.4Q27.9-13.55 27.8-13.55L27.8-13.55Q27.65-13.55 27.65-14.4L27.65-14.4Q27.8-15.35 28.3-16.28 28.8-17.2 29.55-17.93 30.3-18.65 31.2-19.13 32.1-19.6 33.05-19.6L33.05-19.6Q34-19.6 34.47-18.93 34.95-18.25 35.15-17.28 35.35-16.3 35.32-15.28 35.3-14.25 35.2-13.65L35.2-13.65Q35-12.3 34.57-11.03 34.15-9.75 33.55-8.45L33.55-8.45Q33.25-7.85 32.65-6.98 32.05-6.1 31.27-5.3 30.5-4.5 29.62-3.93 28.75-3.35 28-3.35ZM29.6-2.4L29.6-2.4Q29.65-2.1 29.12-1.9 28.6-1.7 28.05-1.7L28.05-1.7Q26.5-1.75 25.67-2.7 24.85-3.65 24.52-4.95 24.2-6.25 24.22-7.65 24.25-9.05 24.35-10L24.35-10Q24.55-11.65 25.15-13.7 25.75-15.75 26.85-17.55 27.95-19.35 29.55-20.58 31.15-21.8 33.35-21.8L33.35-21.8Q34.8-21.8 35.67-21.05 36.55-20.3 36.97-19.2 37.4-18.1 37.47-16.82 37.55-15.55 37.4-14.5L37.4-14.5Q37.3-13.35 37.05-12.4 36.8-11.45 36.35-10.3L36.35-10.3Q36.2-9.95 35.95-9.5 35.7-9.05 35.4-9.1L35.4-9.1Q35.25-9.15 35.32-9.5 35.4-9.85 35.52-10.38 35.65-10.9 35.8-11.48 35.95-12.05 36-12.55L36-12.55Q36.1-13.4 36.12-14.68 36.15-15.95 35.92-17.15 35.7-18.35 35.1-19.2 34.5-20.05 33.3-20.05L33.3-20.05Q31.55-20.05 30.07-18.93 28.6-17.8 27.5-16.18 26.4-14.55 25.72-12.78 25.05-11 24.9-9.65L24.9-9.65Q24.8-8.85 24.85-7.65 24.9-6.45 25.22-5.28 25.55-4.1 26.3-3.25 27.05-2.4 28.35-2.35L28.35-2.35Q28.75-2.3 29.12-2.43 29.5-2.55 29.6-2.4ZM46.2-18.45L46.2-18.45Q46.25-18.9 46.5-19.53 46.75-20.15 47.17-20.73 47.59-21.3 48.2-21.78 48.8-22.25 49.55-22.4L49.55-22.4Q51.15-22.7 52.2-22.2 53.25-21.7 53.8-21.05L53.8-21.05Q54-20.75 53.95-20.7L53.95-20.7Q53.84-20.6 53.59-20.75L53.59-20.75Q53.3-20.95 52.62-21.1 51.95-21.25 51.17-21.18 50.4-21.1 49.67-20.7 48.95-20.3 48.5-19.4L48.5-19.4Q48.09-18.55 47.95-17.65 47.8-16.75 47.77-15.98 47.75-15.2 47.8-14.65 47.84-14.1 47.84-13.9L47.84-13.9Q47.95-13.35 48.02-12.53 48.09-11.7 48.09-10.85 48.09-10 48.05-9.18 48-8.35 47.84-7.75L47.84-7.75Q47.8-7.6 47.72-7.25 47.65-6.9 47.55-6.9L47.55-6.9Q47.3-6.9 47.3-7.25 47.3-7.6 47.3-7.75L47.3-7.75Q47.2-9 46.95-10.28 46.7-11.55 46.47-12.9 46.25-14.25 46.15-15.63 46.05-17 46.2-18.45ZM44.45-8.55L44.45-8.55Q44.5-9.55 44.27-11.38 44.05-13.2 44.09-15.6L44.09-15.6Q44.15-16.85 44.34-18.18 44.55-19.5 45.3-20.8L45.3-20.8Q46.09-22.2 47.32-22.88 48.55-23.55 49.45-23.5L49.45-23.5Q49.59-23.5 49.75-23.5 49.9-23.5 49.9-23.45L49.9-23.45Q49.9-23.35 49.84-23.38 49.8-23.4 49.5-23.3L49.5-23.3Q48.59-23.05 47.9-22.48 47.2-21.9 46.7-21.15 46.2-20.4 45.9-19.6 45.59-18.8 45.55-18.15L45.55-18.15Q45.25-15.4 45.59-13.35L45.59-13.35Q45.84-11.7 46-9.93 46.15-8.15 45.87-6.68 45.59-5.2 44.82-4.23 44.05-3.25 42.45-3.15L42.45-3.15Q42.3-3.15 42.07-3.18 41.84-3.2 41.84-3.3L41.84-3.3Q41.84-3.4 42.3-3.65L42.3-3.65Q43.59-4.25 44-5.4 44.4-6.55 44.45-8.55ZM39.15-2.65L39.15-2.65Q39.84-1.55 41.37-1.03 42.9-0.5 45-1.1L45-1.1Q46.05-1.4 46.84-2.15 47.65-2.9 48.17-3.83 48.7-4.75 48.97-5.75 49.25-6.75 49.3-7.6L49.3-7.6Q49.34-9 49.22-10.35 49.09-11.7 48.92-12.98 48.75-14.25 48.62-15.45 48.5-16.65 48.59-17.8L48.59-17.8Q48.7-19.05 49.3-19.7 49.9-20.35 50.77-20.53 51.65-20.7 52.59-20.4 53.55-20.1 54.34-19.45L54.34-19.45Q54.55-19.35 54.5-19.2L54.5-19.2Q54.5-19.1 54.4-19.15 54.3-19.2 54.2-19.25L54.2-19.25Q52.34-19.85 51.32-19.6 50.3-19.35 50.2-17.8L50.2-17.8Q50.09-16 50.47-13.58 50.84-11.15 50.75-8.2L50.75-8.2Q50.8-7.2 50.52-5.9 50.25-4.6 49.62-3.38 49-2.15 47.97-1.2 46.95-0.25 45.55 0L45.55 0Q42.9 0.4 41.32-0.3 39.75-1 39.05-2.45L39.05-2.45Q38.95-2.75 38.95-2.8L38.95-2.8 39-2.8Q39-2.8 39.15-2.65ZM41.34-2.65L41.34-2.65Q42.3-2.4 43.65-2.45L43.65-2.45Q44.09-2.5 44.75-2.7 45.4-2.9 45.45-2.8L45.45-2.8Q45.59-2.6 45.15-2.3 44.7-2 44-1.78 43.3-1.55 42.55-1.48 41.8-1.4 41.3-1.6L41.3-1.6Q40.34-2 39.92-2.48 39.5-2.95 39.15-3.65L39.15-3.65 39.05-3.85Q38.95-4.05 39-4.1L39-4.1Q39.05-4.15 39.15-4.1L39.15-4.1Q39.2-4.05 39.2-4L39.2-4Q39.8-3.45 40.22-3.18 40.65-2.9 41.34-2.65ZM68.54-22.2L68.54-22.2Q68.59-22.15 68.59-21.98 68.59-21.8 68.54-21.7L68.54-21.7Q68.09-20.25 66.99-19.65 65.89-19.05 65.04-19.05L65.04-19.05Q63.99-19.05 62.89-19.23 61.79-19.4 60.79-20.15L60.79-20.15Q60.69-20.25 60.54-20.35 60.39-20.45 60.39-20.55L60.39-20.55Q60.39-20.7 60.54-20.78 60.69-20.85 60.79-20.9L60.79-20.9Q61.24-21 61.97-21.08 62.69-21.15 63.39-21.05L63.39-21.05Q63.89-20.95 64.59-20.95 65.29-20.95 66.02-21.05 66.74-21.15 67.34-21.38 67.94-21.6 68.24-22.05L68.24-22.05Q68.39-22.25 68.54-22.2ZM68.89-23.75L68.89-23.75 68.74-23.5Q67.89-22.4 66.94-22.08 65.99-21.75 64.94-21.8 63.89-21.85 62.82-22.08 61.74-22.3 60.69-22.35L60.69-22.35Q59.29-22.4 57.89-21.5 56.49-20.6 55.49-18.35L55.49-18.35Q55.34-18.05 55.29-18.23 55.24-18.4 55.29-18.55L55.29-18.55Q55.69-20.05 56.24-21.05 56.79-22.05 57.42-22.68 58.04-23.3 58.74-23.6 59.44-23.9 60.19-24L60.19-24Q61.04-26.85 61.52-29.58 61.99-32.3 61.59-34.75L61.59-34.75Q61.59-34.95 61.59-34.95L61.59-34.95Q61.69-35 61.79-34.9 61.89-34.8 61.89-34.75L61.89-34.75Q62.99-32.35 62.79-29.63 62.59-26.9 61.79-23.9L61.79-23.9Q62.04-23.85 62.19-23.85 62.34-23.85 62.54-23.85L62.54-23.85Q62.79-25.15 63.02-26.63 63.24-28.1 63.37-29.45 63.49-30.8 63.44-31.9 63.39-33 63.09-33.55L63.09-33.55Q62.94-34 63.09-34L63.09-34Q63.19-34 63.24-33.9 63.29-33.8 63.39-33.7L63.39-33.7Q64.09-33 64.49-31.8 64.89-30.6 65.04-29.25 65.19-27.9 65.14-26.58 65.09-25.25 64.84-24.25L64.84-24.25 64.64-23.45Q64.79-23.35 64.94-23.35 65.09-23.35 65.24-23.3L65.24-23.3Q65.54-24.8 65.77-26.3 65.99-27.8 65.94-29.45L65.94-29.45Q65.94-29.8 65.99-29.8L65.99-29.8Q66.09-29.8 66.14-29.65 66.19-29.5 66.24-29.4L66.24-29.4Q66.84-28.3 66.82-26.65 66.79-25 66.54-23.15L66.54-23.15Q67.64-23.15 68.64-23.75L68.64-23.75Q68.89-23.9 68.89-23.75ZM58.54-20.35L58.54-20.35Q58.54-20.1 58.27-19.85 57.99-19.6 57.84-19.5L57.84-19.5Q57.59-19.3 57.27-19.03 56.94-18.75 56.69-18.45L56.69-18.45Q56.44-18.05 56.22-17.75 55.99-17.45 55.84-16.9L55.84-16.9Q55.79-16.8 55.72-16.73 55.64-16.65 55.59-16.7L55.59-16.7Q55.44-16.85 55.59-17.35L55.59-17.35Q55.79-18.1 55.99-18.57 56.19-19.05 56.74-19.6L56.74-19.6Q56.94-19.8 57.24-20 57.54-20.2 57.84-20.35 58.14-20.5 58.34-20.5 58.54-20.5 58.54-20.35ZM62.44-0.25L62.44-0.25Q62.69-0.35 62.64-0.2 62.59-0.05 62.49 0L62.49 0Q61.59 0.3 60.59-0.1 59.59-0.5 58.74-1.35 57.89-2.2 57.29-3.33 56.69-4.45 56.54-5.55L56.54-5.55Q56.29-7.9 56.49-10.1 56.69-12.3 57.24-14.45L57.24-14.45 58.09-17.6Q57.79-17.6 57.49-17.75L57.49-17.75Q57.14-17.85 57.14-18L57.14-18Q57.14-18.1 57.49-18.3L57.49-18.3Q58.89-19 60.32-18.9 61.74-18.8 63.19-18.55L63.19-18.55Q64.09-18.4 65.02-18.32 65.94-18.25 67.04-18.7L67.04-18.7Q67.14-18.8 67.24-18.75L67.24-18.75Q67.34-18.65 67.19-18.4L67.19-18.4Q66.89-17.75 66.34-17.45 65.79-17.15 65.19-17L65.19-17Q64.79-15.7 64.49-14.68 64.19-13.65 63.99-12.95L63.99-12.95Q63.44-10.55 62.72-8.08 61.99-5.6 61.74-3.9L61.74-3.9Q61.64-3.35 61.54-3.3L61.54-3.3Q61.44-3.25 61.34-3.5 61.24-3.75 61.19-3.9L61.19-3.9Q60.99-5.35 61.12-6.93 61.24-8.5 61.59-10.15 61.94-11.8 62.39-13.48 62.84-15.15 63.34-16.85L63.34-16.85Q63.09-16.85 62.84-16.85 62.59-16.85 62.34-16.9L62.34-16.9Q61.94-15.85 61.52-14.83 61.09-13.8 60.69-12.9L60.69-12.9Q60.64-12.8 60.47-12.43 60.29-12.05 60.19-12.05L60.19-12.05Q59.99-12.1 60.04-12.53 60.09-12.95 60.09-13.1L60.09-13.1Q60.19-13.85 60.42-14.85 60.64-15.85 60.84-17L60.84-17Q60.59-17.05 60.29-17.07 59.99-17.1 59.69-17.2L59.69-17.2Q59.39-16.2 59.12-15.25 58.84-14.3 58.59-13.35L58.59-13.35Q58.19-11.6 57.99-9.63 57.79-7.65 57.99-5.55L57.99-5.55Q58.09-4.6 58.52-3.6 58.94-2.6 59.54-1.8 60.14-1 60.92-0.55 61.69-0.1 62.44-0.25ZM62.89-1.35L62.89-1.35Q63.14-1.55 63.19-1.38 63.24-1.2 62.99-1.05L62.99-1.05Q62.79-0.9 62.47-0.83 62.14-0.75 61.74-0.8 61.34-0.85 60.89-1.1 60.44-1.35 60.04-1.9L60.04-1.9Q59.69-2.35 59.47-3.2 59.24-4.05 59.14-4.88 59.04-5.7 59.09-6.3 59.14-6.9 59.34-6.9L59.34-6.9Q59.59-6.9 59.72-6.2 59.84-5.5 59.94-5.05L59.94-5.05Q60.14-4.25 60.49-3.4 60.84-2.55 61.24-2.05L61.24-2.05Q61.74-1.4 62.14-1.28 62.54-1.15 62.89-1.35ZM74.39-16.5L74.39-16.5Q74.54-17.15 74.56-18 74.59-18.85 74.44-19.75 74.29-20.65 73.92-21.48 73.54-22.3 72.94-22.9L72.94-22.9Q72.64-23.1 72.59-23.1L72.59-23.1Q72.39-23.1 72.59-22.8L72.59-22.8Q72.89-22.15 72.81-20.78 72.74-19.4 72.49-17.93 72.24-16.45 71.97-15.28 71.69-14.1 71.64-13.85L71.64-13.85Q71.29-12.95 71.02-11.6 70.74-10.25 70.74-9.4L70.74-9.4Q70.69-9.3 70.69-9 70.69-8.7 70.84-8.65L70.84-8.65Q70.89-8.65 71.04-8.9 71.19-9.15 71.29-9.25L71.29-9.25Q72.19-10.85 73.02-12.75 73.84-14.65 74.39-16.5ZM74.59-8.95L74.59-8.95Q74.79-9.85 75.24-11.28 75.69-12.7 75.99-14.23 76.29-15.75 76.29-17.23 76.29-18.7 75.69-19.65L75.69-19.65Q75.49-19.85 75.39-19.85L75.39-19.85Q75.29-19.85 75.34-19.65L75.34-19.65Q75.34-17.75 74.92-16.13 74.49-14.5 73.99-12.95L73.99-12.95Q73.14-10.4 72.44-7.98 71.74-5.55 71.84-3L71.84-3Q71.84-2.85 71.86-2.68 71.89-2.5 72.04-2.5L72.04-2.5Q72.14-2.5 72.19-2.6 72.24-2.7 72.34-2.9L72.34-2.9Q72.84-4.1 73.49-5.73 74.14-7.35 74.59-8.95ZM71.04 0L71.04 0Q70.09-1 69.59-2.23 69.09-3.45 68.89-4.73 68.69-6 68.79-7.3 68.89-8.6 69.19-9.75L69.19-9.75Q69.64-11.55 70.34-13.35 71.04-15.15 71.54-16.93 72.04-18.7 72.11-20.43 72.19-22.15 71.39-23.8L71.39-23.8Q71.24-24.05 71.19-24.05L71.19-24.05Q71.14-24.05 71.14-23.98 71.14-23.9 71.19-23.85L71.19-23.85Q71.34-22.35 70.99-20.75 70.64-19.15 70.09-17.48 69.54-15.8 68.86-14.03 68.19-12.25 67.74-10.4L67.74-10.4Q67.39-9.05 67.27-7.65 67.14-6.25 67.44-4.88 67.74-3.5 68.54-2.25 69.34-1 70.84 0.05L70.84 0.05Q70.94 0.15 71.09 0.18 71.24 0.2 71.04 0ZM71.44-1.9L71.44-1.9Q71.29-2.3 71.11-2.9 70.94-3.5 70.84-4.05L70.84-4.05Q70.74-4.25 70.59-4.8 70.44-5.35 70.34-5.35L70.34-5.35Q70.14-5.35 70.06-5 69.99-4.65 69.99-4.13 69.99-3.6 70.06-3.03 70.14-2.45 70.29-2.05L70.29-2.05Q70.59-1.05 71.02-0.65 71.44-0.25 72.14 0L72.14 0Q72.44 0.15 72.59 0.15L72.59 0.15Q72.64 0.15 72.61 0.08 72.59 0 72.54 0L72.54 0Q72.19-0.4 71.92-0.85 71.64-1.3 71.44-1.9ZM75.34-27.75L75.34-27.75Q75.09-27.75 74.56-27.83 74.04-27.9 74.04-28.3L74.04-28.3Q74.04-28.45 74.49-28.68 74.94-28.9 75.49-29.33 76.04-29.75 76.49-30.43 76.94-31.1 76.94-32.15L76.94-32.15Q76.94-33.45 76.44-34.1L76.44-34.1Q76.34-34.25 76.19-34.43 76.04-34.6 76.09-34.65L76.09-34.65Q76.19-34.65 76.31-34.58 76.44-34.5 76.49-34.45L76.49-34.45Q77.49-33.9 78.02-33.02 78.54-32.15 78.54-31.35L78.54-31.35Q78.54-29.75 77.79-28.75 77.04-27.75 75.34-27.75ZM73.49-29.75L73.49-29.75Q72.89-29.5 72.89-30.05L72.89-30.05Q72.89-30.45 73.19-30.83 73.49-31.2 73.77-31.65 74.04-32.1 74.14-32.68 74.24-33.25 73.84-34.1L73.84-34.1Q73.74-34.35 73.49-34.65 73.24-34.95 73.34-35L73.34-35Q73.44-35.05 73.77-34.93 74.09-34.8 74.19-34.75L74.19-34.75Q75.04-34.35 75.47-33.55 75.89-32.75 75.89-32.15L75.89-32.15Q75.89-31.2 75.11-30.58 74.34-29.95 73.49-29.75ZM72.04-32.45L72.04-32.45Q72.04-32.7 72.19-33.02 72.34-33.35 72.69-33.35L72.69-33.35Q72.94-33.35 73.09-33.02 73.24-32.7 73.24-32.45L73.24-32.45Q73.24-32.25 73.09-31.93 72.94-31.6 72.69-31.6L72.69-31.6Q72.34-31.6 72.19-31.9 72.04-32.2 72.04-32.45ZM94.09-17.95L94.09-17.95Q94.19-16.4 93.89-14.98 93.59-13.55 93.14-12.35L93.14-12.35Q93.04-12.1 92.81-11.8 92.59-11.5 92.39-11.6L92.39-11.6Q92.29-11.6 92.34-11.95 92.39-12.3 92.39-12.45L92.39-12.45Q92.44-13 92.46-13.83 92.49-14.65 92.49-15.5 92.49-16.35 92.41-17.13 92.34-17.9 92.19-18.45L92.19-18.45Q91.74-20.05 90.76-20.23 89.79-20.4 88.79-19.7 87.79-19 86.89-17.75 85.99-16.5 85.69-15.3L85.69-15.3Q85.99-15.75 86.46-16.38 86.94-17 87.54-17.57 88.14-18.15 88.81-18.53 89.49-18.9 90.09-18.85L90.09-18.85Q90.74-18.8 91.01-18.15 91.29-17.5 91.34-16.55 91.39-15.6 91.24-14.5 91.09-13.4 90.89-12.45L90.89-12.45Q90.54-10.9 90.29-9.25 90.04-7.6 90.11-6.03 90.19-4.45 90.66-2.98 91.14-1.5 92.29-0.25L92.29-0.25Q92.39-0.1 92.44 0 92.49 0.1 92.19-0.05L92.19-0.05Q90.89-0.8 90.11-1.8 89.34-2.8 88.94-3.95 88.54-5.1 88.46-6.35 88.39-7.6 88.49-8.85L88.49-8.85Q88.69-10.65 89.09-12 89.49-13.35 89.69-15.05L89.69-15.05Q89.79-16.1 89.54-16.43 89.29-16.75 88.94-16.8L88.94-16.8Q88.44-16.85 87.81-16.28 87.19-15.7 86.51-14.65 85.84-13.6 85.21-12.2 84.59-10.8 84.14-9.25L84.14-9.25Q83.74-7.7 83.16-6.03 82.59-4.35 82.09-3.15L82.09-3.15Q81.89-2.7 81.79-2.7L81.79-2.7Q81.69-2.7 81.61-2.9 81.54-3.1 81.54-3.2L81.54-3.2Q81.34-5.7 81.99-8.15 82.64-10.6 83.49-13.1L83.49-13.1Q83.99-14.65 84.39-15.85 84.79-17.05 84.79-18.9L84.79-18.9Q84.79-19.7 85.19-20.58 85.59-21.45 86.36-22.18 87.14-22.9 88.29-23.35 89.44-23.8 90.89-23.75L90.89-23.75Q93.29-23.7 94.59-22.63 95.89-21.55 96.41-19.9 96.94-18.25 96.86-16.32 96.79-14.4 96.44-12.6L96.44-12.6Q96.14-11.25 95.74-10.15 95.34-9.05 94.89-8.1 94.44-7.15 94.04-6.3 93.64-5.45 93.39-4.6L93.39-4.6Q93.34-4.45 93.29-4.28 93.24-4.1 93.14-4.1L93.14-4.1Q93.04-4.1 92.99-4.3 92.94-4.5 92.94-4.75L92.94-4.75Q92.84-6.45 93.29-8.03 93.74-9.6 94.24-11.28 94.74-12.95 94.99-14.8 95.24-16.65 94.79-18.9L94.79-18.9Q94.34-21.3 92.59-22.1 90.84-22.9 88.59-22L88.59-22Q88.29-21.85 87.79-21.55 87.29-21.25 86.81-20.75 86.34-20.25 85.94-19.58 85.54-18.9 85.44-18.1L85.44-18.1Q86.04-19 86.84-19.8 87.64-20.6 88.54-21.08 89.44-21.55 90.36-21.65 91.29-21.75 92.19-21.3L92.19-21.3Q93.24-20.75 93.64-19.78 94.04-18.8 94.09-17.95ZM83.89-16.6L83.89-16.6Q83.34-14.7 82.41-12.85 81.49-11 80.89-9.3L80.89-9.3Q80.84-9.2 80.71-8.93 80.59-8.65 80.39-8.7L80.39-8.7Q80.29-8.75 80.26-9.03 80.24-9.3 80.24-9.45L80.24-9.45Q80.24-10.25 80.51-11.58 80.79-12.9 81.09-13.75L81.09-13.75Q81.19-14.05 81.46-15.28 81.74-16.5 81.96-17.95 82.19-19.4 82.26-20.75 82.34-22.1 81.99-22.7L81.99-22.7Q81.79-23.05 81.99-23.05L81.99-23.05Q82.14-23.05 82.39-22.8L82.39-22.8Q82.99-22.25 83.36-21.45 83.74-20.65 83.91-19.78 84.09-18.9 84.06-18.05 84.04-17.2 83.89-16.6ZM94.09-0.05L94.09-0.05Q93.99 0 93.69-0.1L93.69-0.1Q93.54-0.15 93.44-0.2L93.44-0.2Q92.74-0.65 92.24-1.23 91.74-1.8 91.24-3.2L91.24-3.2Q91.09-3.7 91.01-4.48 90.94-5.25 90.99-6 91.04-6.75 91.16-7.28 91.29-7.8 91.54-7.8L91.54-7.8Q91.64-7.8 91.76-7.23 91.89-6.65 92.01-5.9 92.14-5.15 92.29-4.4 92.44-3.65 92.54-3.3L92.54-3.3Q92.79-2.55 93.04-1.8 93.29-1.05 93.84-0.5L93.84-0.5Q93.94-0.4 94.04-0.23 94.14-0.05 94.09-0.05ZM80.59 0.05L80.59 0.05Q79.04-1 78.21-2.25 77.39-3.5 77.09-4.85 76.79-6.2 76.86-7.6 76.94-9 77.24-10.35L77.24-10.35Q77.64-12.15 78.26-13.93 78.89-15.7 79.46-17.38 80.04-19.05 80.36-20.65 80.69-22.25 80.44-23.7L80.44-23.7Q80.44-23.9 80.49-23.9L80.49-23.9Q80.59-23.9 80.74-23.65L80.74-23.65Q81.64-22.05 81.59-20.35 81.54-18.65 81.04-16.88 80.54-15.1 79.81-13.28 79.09-11.45 78.69-9.6L78.69-9.6Q78.44-8.45 78.36-7.18 78.29-5.9 78.54-4.65 78.79-3.4 79.36-2.2 79.94-1 80.94-0.05L80.94-0.05Q81.14 0.05 81.04 0.15L81.04 0.15Q80.94 0.25 80.81 0.18 80.69 0.1 80.59 0.05ZM82.49 0.25L82.49 0.25Q82.34 0.35 82.09 0.1L82.09 0.1Q81.54-0.3 81.01-0.75 80.49-1.2 79.99-2.2L79.99-2.2Q79.79-2.55 79.69-3.1 79.59-3.65 79.59-4.17 79.59-4.7 79.66-5.05 79.74-5.4 79.89-5.4L79.89-5.4Q80.09-5.35 80.21-4.85 80.34-4.35 80.44-4.2L80.44-4.2Q80.64-3.65 80.79-3.18 80.94-2.7 81.14-2.25L81.14-2.25Q81.44-1.55 81.74-1.05 82.04-0.55 82.44-0.05L82.44-0.05Q82.49 0 82.54 0.1 82.59 0.2 82.49 0.25ZM116.29-22.2L116.29-22.35Q116.19-22.4 116.06-22.2 115.94-22 115.84-21.9L115.84-21.9Q115.09-20.95 114.49-19.55 113.89-18.15 113.46-16.6 113.04-15.05 112.76-13.5 112.49-11.95 112.29-10.75L112.29-10.75Q112.04-9.05 111.86-7.53 111.69-6 111.54-4.55 111.39-3.1 111.29-1.63 111.19-0.15 111.04 1.4L111.04 1.4Q111.09 1.45 111.09 1.68 111.09 1.9 111.09 2.13 111.09 2.35 111.09 2.53 111.09 2.7 111.19 2.7L111.19 2.7Q111.24 2.7 111.34 2.53 111.44 2.35 111.54 2.15 111.64 1.95 111.69 1.75 111.74 1.55 111.74 1.55L111.74 1.55Q112.29 0.35 112.69-1.25 113.09-2.85 113.34-4.45L113.34-4.45Q113.39-4.85 113.54-6.1 113.69-7.35 113.89-9 114.09-10.65 114.36-12.58 114.64-14.5 114.91-16.28 115.19-18.05 115.51-19.5 115.84-20.95 116.14-21.7L116.14-21.7Q116.19-21.9 116.24-22 116.29-22.1 116.29-22.2L116.29-22.2ZM114.64-22.55L114.64-22.55Q114.64-22.6 114.29-22.6L114.29-22.6Q114.14-22.6 113.99-22.55L113.99-22.55Q112.09-22.35 110.49-21.53 108.89-20.7 107.56-19.48 106.24-18.25 105.21-16.7 104.19-15.15 103.54-13.5L103.54-13.5Q102.84-11.8 102.49-9.9 102.14-8 102.24-6.35L102.24-6.35Q102.39-4.2 104.14-5.95L104.14-5.95Q105.64-7.45 106.96-9.2 108.29-10.95 109.46-12.9 110.64-14.85 111.69-16.88 112.74-18.9 113.79-20.95L113.79-20.95Q113.99-21.35 113.94-21.35L113.94-21.35Q113.84-21.45 113.71-21.35 113.59-21.25 113.59-21.15L113.59-21.15Q110.89-17.7 108.56-14.55 106.24-11.4 104.29-8.3L104.29-8.3Q104.04-8.05 103.96-8.15 103.89-8.25 103.94-8.5L103.94-8.5Q104.04-9.65 104.31-10.88 104.59-12.1 105.09-13.35L105.09-13.35Q106.29-16.4 108.54-18.75 110.79-21.1 114.19-22.25L114.19-22.25Q114.64-22.45 114.64-22.55ZM111.94-22.9L111.94-22.9Q111.89-23 111.71-23 111.54-23 111.39-23L111.39-23Q109.99-23 108.46-22.2 106.94-21.4 105.54-20.18 104.14-18.95 103.04-17.48 101.94-16 101.39-14.65L101.39-14.65Q100.69-12.85 100.21-11.18 99.74-9.5 99.69-7.8L99.69-7.8Q99.64-6.9 99.76-6.05 99.89-5.2 100.24-4.2L100.24-4.2Q100.44-3.6 100.91-3.25 101.39-2.9 101.91-2.8 102.44-2.7 102.99-2.8 103.54-2.9 103.94-3.2L103.94-3.2Q103.99-3.25 104.16-3.4 104.34-3.55 104.51-3.73 104.69-3.9 104.81-4.05 104.94-4.2 104.89-4.3L104.89-4.3Q104.84-4.4 104.41-4.17 103.99-3.95 103.69-3.9L103.69-3.9Q102.64-3.7 102.11-4.05 101.59-4.4 101.36-5.08 101.14-5.75 101.16-6.58 101.19-7.4 101.29-8.2L101.29-8.2Q101.29-8.5 101.41-9.25 101.54-10 101.84-11.08 102.14-12.15 102.66-13.45 103.19-14.75 103.94-16.05L103.94-16.05Q104.69-17.35 105.71-18.45 106.74-19.55 107.79-20.4 108.84-21.25 109.81-21.8 110.79-22.35 111.49-22.55L111.49-22.55Q111.84-22.65 111.89-22.73 111.94-22.8 111.94-22.9ZM117.99-23.25L117.99-23.45Q117.84-23.45 117.74-23.25L117.74-23.25Q117.69-23.15 117.64-23L117.64-23Q116.14-19.9 115.54-16.63 114.94-13.35 114.64-9.95 114.34-6.55 114.04-3.1 113.74 0.35 112.84 3.8L112.84 3.8Q112.54 4.9 112.24 6.1 111.94 7.3 111.44 8.45 110.94 9.6 110.11 10.63 109.29 11.65 107.89 12.35L107.89 12.35Q106.29 13.2 104.94 13.08 103.59 12.95 102.44 12.35 101.29 11.75 100.34 10.83 99.39 9.9 98.69 9.15L98.69 9.15Q98.59 9.05 98.49 8.93 98.39 8.8 98.34 8.85L98.34 8.85Q98.24 8.9 98.31 9.08 98.39 9.25 98.44 9.35L98.44 9.35Q99.59 11.5 101.94 13.1L101.94 13.1Q102.49 13.5 103.29 13.8 104.09 14.1 105.01 14.23 105.94 14.35 106.91 14.18 107.89 14 108.79 13.4L108.79 13.4Q110.44 12.3 111.41 11.08 112.39 9.85 112.99 8.58 113.59 7.3 113.91 5.95 114.24 4.6 114.54 3.3L114.54 3.3Q115.39-0.1 115.71-3.48 116.04-6.85 116.24-10.15 116.44-13.45 116.74-16.68 117.04-19.9 117.89-22.95L117.89-22.95Q117.99-23.15 117.99-23.25L117.99-23.25ZM112.09-13.9L112.09-13.9Q112.34-14.95 112.76-16.07 113.19-17.2 113.44-18.3L113.44-18.3Q113.44-18.4 113.51-18.65 113.59-18.9 113.54-18.9L113.54-18.9Q113.44-18.95 113.24-18.65 113.04-18.35 113.04-18.3L113.04-18.3Q112.34-17.15 111.79-15.88 111.24-14.6 110.79-13.55L110.79-13.55Q110.69-13.3 110.36-12.7 110.04-12.1 109.71-11.43 109.39-10.75 109.16-10.18 108.94-9.6 109.09-9.5L109.09-9.5Q109.19-9.5 109.39-9.73 109.59-9.95 109.69-10.05L109.69-10.05Q109.84-10.3 110.04-10.58 110.24-10.85 110.44-11.1L110.44-11.1Q110.14-9.85 109.91-9.03 109.69-8.2 109.44-7.55 109.19-6.9 108.86-6.33 108.54-5.75 107.99-5L107.99-5Q107.59-4.45 107.01-3.83 106.44-3.2 105.71-2.68 104.99-2.15 104.14-1.83 103.29-1.5 102.34-1.5L102.34-1.5Q101.14-1.5 100.44-2.13 99.74-2.75 99.39-3.68 99.04-4.6 98.94-5.65 98.84-6.7 98.89-7.6L98.89-7.6Q99.09-11.2 100.56-14.63 102.04-18.05 104.69-20.75L104.69-20.75Q104.69-20.8 104.84-20.95 104.99-21.1 104.99-21.15L104.99-21.15Q104.89-21.25 104.74-21.15L104.74-21.15 104.54-21.05Q103.64-20.5 102.66-19.55 101.69-18.6 100.81-17.32 99.94-16.05 99.21-14.5 98.49-12.95 97.99-11.3L97.99-11.3Q97.74-10.45 97.61-9.28 97.49-8.1 97.56-6.83 97.64-5.55 97.91-4.28 98.19-3 98.81-2.02 99.44-1.05 100.41-0.48 101.39 0.1 102.84 0L102.84 0Q104.29-0.1 105.16-0.5 106.04-0.9 106.59-1.35L106.59-1.35Q107.29-1.9 107.84-2.5 108.39-3.1 108.94-3.65L108.94-3.65Q108.64-1.9 108.36-0.68 108.09 0.55 107.84 1.65L107.84 1.65Q107.49 3.15 107.19 4.53 106.89 5.9 106.54 6.95 106.19 8 105.74 8.68 105.29 9.35 104.69 9.45L104.69 9.45Q103.99 9.45 103.99 9.6L103.99 9.6Q103.94 9.75 104.19 9.85 104.44 9.95 104.69 10L104.69 10Q105.44 10.15 106.11 9.75 106.79 9.35 107.31 8.58 107.84 7.8 108.26 6.75 108.69 5.7 108.99 4.6L108.99 4.6Q109.59 2.3 109.99 0.13 110.39-2.05 110.74-4.45L110.74-4.45Q111.09-6.8 111.31-9.15 111.54-11.5 112.09-13.9ZM106.49 10.9L106.49 10.9Q106.39 10.8 106.21 10.83 106.04 10.85 105.99 10.85L105.99 10.85Q105.14 11 104.31 10.8 103.49 10.6 102.64 10.25L102.64 10.25Q101.69 9.85 100.89 9.28 100.09 8.7 99.09 8.05L99.09 8.05Q98.99 7.95 98.79 7.85 98.59 7.75 98.59 7.85L98.59 7.85Q98.54 7.9 98.66 8.1 98.79 8.3 98.89 8.4L98.89 8.4Q99.54 9.25 100.26 10 100.99 10.75 102.14 11.2L102.14 11.2Q102.89 11.5 103.69 11.6 104.49 11.7 105.16 11.63 105.84 11.55 106.24 11.35 106.64 11.15 106.49 10.9Z" opacity="1" transform="matrix(1,0,0,1,0,0)" fill="#000000" class="wordmark-text-0" data-fill-palette-color="primary" id="text-0"></path></svg></g></svg></g></svg></g></svg></g><g transform="matrix(1,0,0,1,36.672,0)"><svg viewBox="0 0 118.656 98.88309000000002" height="98.88309000000002" width="118.656"><g><svg xmlns="http://www.w3.org/2000/svg" xmlns:xlink="http://www.w3.org/1999/xlink" version="1.1" x="0" y="0" viewBox="0 42.66 512 426.68000000000006" enable-background="new 0 0 512 512" xml:space="preserve" height="98.88309000000002" width="118.656" class="icon-icon-0" data-fill-palette-color="accent" id="icon-0"><g fill="#ffffff" data-fill-palette-color="accent"><path d="M117.328 74.66c0-5.891-4.773-10.664-10.664-10.664S96 68.77 96 74.66s4.773 10.672 10.664 10.672S117.328 80.551 117.328 74.66z" fill="#000000" data-fill-palette-color="accent"></path><path d="M149.328 74.66c0-5.891-4.773-10.664-10.664-10.664S128 68.77 128 74.66s4.773 10.672 10.664 10.672S149.328 80.551 149.328 74.66z" fill="#000000" data-fill-palette-color="accent"></path><path d="M181.328 74.66c0-5.891-4.773-10.664-10.664-10.664S160 68.77 160 74.66s4.773 10.672 10.664 10.672S181.328 80.551 181.328 74.66z" fill="#000000" data-fill-palette-color="accent"></path><path d="M298.656 266.66c-17.656 0-31.992 14.336-31.992 31.992 0 17.688 14.336 32 31.992 32 17.688 0 32-14.312 32-32C330.656 280.996 316.344 266.66 298.656 266.66zM298.656 309.34c-5.875 0-10.656-4.797-10.656-10.688 0-5.875 4.781-10.656 10.656-10.656 5.891 0 10.672 4.781 10.672 10.656C309.328 304.543 304.547 309.34 298.656 309.34z" fill="#000000" data-fill-palette-color="accent"></path><path d="M85.328 287.996c0-5.891-4.773-10.656-10.664-10.656-2.945 0-5.617 1.188-7.547 3.125l-21.328 21.312c-1.93 1.938-3.125 4.609-3.125 7.562 0 5.875 4.773 10.656 10.664 10.656 2.945 0 5.617-1.188 7.547-3.125l21.328-21.328C84.133 293.621 85.328 290.934 85.328 287.996z" fill="#000000" data-fill-palette-color="accent"></path><path d="M127.992 287.996c0-5.891-4.773-10.656-10.664-10.656-2.945 0-5.609 1.188-7.539 3.125l-21.336 21.312c-1.93 1.938-3.125 4.609-3.125 7.562 0 5.875 4.773 10.656 10.664 10.656 2.953 0 5.617-1.188 7.547-3.125l21.328-21.328C126.797 293.621 127.992 290.934 127.992 287.996z" fill="#000000" data-fill-palette-color="accent"></path><path d="M159.992 277.34c-2.945 0-5.609 1.188-7.539 3.125l-21.336 21.312c-1.93 1.938-3.125 4.609-3.125 7.562 0 5.875 4.781 10.656 10.672 10.656 2.945 0 5.609-1.188 7.547-3.125l21.32-21.328c1.938-1.922 3.133-4.609 3.133-7.547C170.664 282.105 165.891 277.34 159.992 277.34z" fill="#000000" data-fill-palette-color="accent"></path><path d="M490.656 42.66H85.328C73.547 42.66 64 52.215 64 63.996v128l0 0L0 234.66v234.68h362.656v-64H512V63.996C512 52.215 502.438 42.66 490.656 42.66zM70.453 213.332h221.75l32 21.328H38.453L70.453 213.332zM21.328 255.996h320v85.344h-320V255.996zM362.656 234.66l-32-21.328h64c5.906 0 10.672-4.781 10.672-10.672s-4.766-10.664-10.672-10.664H128v-42.664h320v106.664h-85.344V234.66zM341.328 447.996h-320v-85.344h320V447.996zM448 383.996h-85.344v-64H448V383.996zM490.656 308.652v75.344h-21.328v-85.344H362.656V277.34h106.672V127.996H106.664v64H85.328V106.66h405.328V308.652zM490.656 85.332H170.664h-32-32H85.328V63.996h21.336 32 32 319.992V85.332z" fill="#000000" data-fill-palette-color="accent"></path><path d="M298.656 437.34c17.688 0 32-14.344 32-32 0-17.688-14.312-32-32-32-17.656 0-31.992 14.312-31.992 32C266.664 422.996 281 437.34 298.656 437.34zM298.656 394.652c5.891 0 10.672 4.797 10.672 10.688 0 5.875-4.781 10.656-10.672 10.656-5.875 0-10.656-4.781-10.656-10.656C288 399.449 292.781 394.652 298.656 394.652z" fill="#000000" data-fill-palette-color="accent"></path><path d="M53.328 426.652c2.945 0 5.617-1.188 7.547-3.125l21.328-21.312c1.93-1.938 3.125-4.609 3.125-7.562 0-5.875-4.773-10.656-10.664-10.656-2.945 0-5.617 1.188-7.547 3.125l-21.328 21.328c-1.93 1.922-3.125 4.609-3.125 7.547C42.664 421.887 47.438 426.652 53.328 426.652z" fill="#000000" data-fill-palette-color="accent"></path><path d="M85.328 415.996c0 5.891 4.773 10.656 10.664 10.656 2.953 0 5.617-1.188 7.547-3.125l21.328-21.312c1.93-1.938 3.125-4.609 3.125-7.562 0-5.875-4.773-10.656-10.664-10.656-2.945 0-5.609 1.188-7.547 3.125l-21.328 21.328C86.523 410.371 85.328 413.059 85.328 415.996z" fill="#000000" data-fill-palette-color="accent"></path><path d="M127.992 415.996c0 5.891 4.781 10.656 10.672 10.656 2.945 0 5.609-1.188 7.547-3.125l21.32-21.312c1.938-1.938 3.133-4.609 3.133-7.562 0-5.875-4.773-10.656-10.672-10.656-2.945 0-5.609 1.188-7.539 3.125l-21.328 21.328C129.188 410.371 127.992 413.059 127.992 415.996z" fill="#000000" data-fill-palette-color="accent"></path></g></svg></g></svg></g><g></g></svg></g></svg></g></svg></g></svg></g><defs></defs></svg><rect width="320" height="360" fill="none" stroke="none" visibility="hidden"></rect></g></svg></g></svg>